<svg xmlns="http://www.w3.org/2000/svg" width="32" height="32" fill="none">
  <path fill="#000000" fill-rule="evenodd" d="M26.148.438c-.819 1.165-2.479 3.167-3.625 4.37-1.3 1.366-2.75 2.68-4.062 3.682l-.737.561.196.301c1.711 2.628 2.277 5.184 1.86 8.408a25 25 0 0 1-.342 1.96c-.115.503-.198.925-.185.939.047.048.44-.595.644-1.053.618-1.388.942-3.106.937-4.97l-.004-1.195 2.166-2.29c2.35-2.483 3.39-3.661 3.921-4.445l.342-.503-.038-1.221a27 27 0 0 0-.148-2.084c-.118-.924-.41-2.393-.538-2.707L26.456 0zM5.021 1.906c-1.157.173-2.342.815-3.258 1.764C.763 4.707.196 5.973.05 7.497c-.043.452-.06 3.31-.044 7.654.022 6.02.04 6.995.134 7.403.523 2.26 1.955 3.984 3.717 4.472.226.063.58.134.788.16.207.024.46.061.564.082l.187.038.018 2.347L5.432 32l2.21-2.308 2.21-2.308.701-.012c1.116-.02 2.01-.291 3.085-.938 1.39-.834 2.784-2.263 3.755-3.85.239-.39.826-1.69 1.005-2.224.376-1.123.71-3.223.508-3.19-.028.005-3.464.005-7.636 0l-7.584-.008v-6.898h6.711c3.691 0 6.711-.02 6.711-.043 0-.024-.177-.323-.393-.665a22 22 0 0 1-.416-.67c-.011-.028.636-.638 1.439-1.358l3.028-2.713 1.569-1.406-.268-.243c-.389-.354-1.348-.883-1.98-1.093l-.548-.181-7.156-.008c-3.936-.005-7.249.005-7.362.022m23.944 3.478c-1.34 2.213-2.8 4.03-5.464 6.795l-1.672 1.736-.066.815c-.11 1.353-.26 2.44-.438 3.172-.403 1.667-1.218 3.269-2.546 5-.795 1.036-.829 1.153-.159.54.957-.873 2.03-2.207 2.733-3.396.773-1.308 1.436-3.05 1.594-4.186l.081-.586.379-.294c.337-.261 2.178-1.829 2.372-2.02.041-.04.303-.284.582-.54 1.591-1.466 3.065-3.096 3.078-3.403.024-.62.021-4.358-.004-4.357-.019.001-.23.327-.47.724m2.662 2.522c-.479.683-1.87 2.468-2.481 3.184-1.349 1.579-3.516 3.68-4.994 4.84-.374.294-.389.319-.472.786-.494 2.796-2.789 5.782-6.341 8.252-.533.37-.988.674-1.012.674s-.158.078-.299.174-.64.386-1.111.645c-.952.525-.934.563.171.362 3.174-.576 6.164-1.975 8.8-4.119 1.191-.968 2.944-2.9 3.747-4.13.16-.243.32-.479.356-.524.221-.274 1.422-2.474 1.896-3.475.982-2.074 1.494-3.611 1.865-5.605.258-1.382.277-1.51.225-1.506-.023.001-.18.2-.35.442M5.842 11.93c-.021.057-.03 1.072-.019 2.255l.02 2.15.496.022.497.021v-1.645l.6-.025c.779-.034 1.173-.222 1.433-.687a1.47 1.47 0 0 0-.23-1.759c-.309-.307-.538-.362-1.682-.4-.901-.03-1.083-.02-1.115.068m4.144 2.188v2.273l1.09-.033c1.059-.032 1.105-.04 1.534-.262.802-.414 1.143-1.018 1.143-2.024 0-.598-.144-1.048-.457-1.432-.476-.584-1.148-.794-2.54-.795h-.77zm4.771-2.226c-.025.027-.046 1.047-.046 2.267v2.219l.497-.021.496-.021.02-.916.019-.917h1.297v-.79h-1.301v-1.006h1.712v-.863h-1.324c-.728 0-1.345.022-1.37.048M6.836 13.31v.618h.332c.183 0 .425-.034.539-.075.349-.128.473-.627.233-.938-.108-.14-.208-.171-.616-.195l-.488-.03zm4.109.798v1.33h.394c.952 0 1.41-.432 1.411-1.332.002-.875-.458-1.327-1.347-1.327h-.458z" clip-rule="evenodd"></path>
</svg>
