<?xml version="1.0" encoding="UTF-8"?>
<svg version="1.1" xmlns="http://www.w3.org/2000/svg" width="512" height="512">
<path d="M0 0 C15.84 0 31.68 0 48 0 C48 47.52 48 95.04 48 144 C53.61 141.36 59.22 138.72 65 136 C68.37009101 134.8580483 71.45375778 133.85622514 74.875 133.0625 C75.67035156 132.8663208 76.46570313 132.6701416 77.28515625 132.46801758 C83.17122964 131.06791468 88.94030469 130.13508875 95 130 C95.85078125 129.96132812 96.7015625 129.92265625 97.578125 129.8828125 C124.84027978 129.16538737 150.30533223 139.3785321 170 158 C170.65871094 158.58007812 171.31742187 159.16015625 171.99609375 159.7578125 C187.23193534 173.76211955 197.38538395 195.66130398 200 216 C200.10959196 218.96038352 200.09487446 221.91316646 200.0625 224.875 C200.041875 227.55625 200.02125 230.2375 200 233 C207.92 233 215.84 233 224 233 C224 249.17 224 265.34 224 282 C216.08 282 208.16 282 200 282 C200.0825 284.26875 200.165 286.5375 200.25 288.875 C200.52092818 314.70706317 188.20038941 338.37672495 170.47265625 356.59765625 C148.56479563 377.41173235 122.51656666 385.1384087 92.734375 384.37890625 C77.39215896 383.6949813 61.9068129 379.60454194 49 371 C48.67 372.98 48.34 374.96 48 377 C32.16 377 16.32 377 0 377 C0 345.65 0 314.3 0 282 C-5.28 282 -10.56 282 -16 282 C-16 313.35 -16 344.7 -16 377 C-31.84 377 -47.68 377 -64 377 C-64.33 374.69 -64.66 372.38 -65 370 C-65.99257812 370.53109375 -66.98515625 371.0621875 -68.0078125 371.609375 C-76.82932533 376.2338637 -85.22363123 379.84171968 -95 382 C-95.74886475 382.17515137 -96.49772949 382.35030273 -97.26928711 382.53076172 C-105.78830359 384.3310855 -114.2733075 384.39681689 -122.9375 384.375 C-124.09744476 384.37468277 -124.09744476 384.37468277 -125.28082275 384.37435913 C-142.43809649 384.32755164 -158.25957159 382.28685632 -174 375 C-175.06347656 374.52046875 -176.12695312 374.0409375 -177.22265625 373.546875 C-194.34937363 365.13661569 -206.38863268 350.82029466 -213 333 C-215.5368483 324.82094206 -216.51727643 317.17104959 -216.4375 308.625 C-216.43427734 307.540979 -216.43105469 306.45695801 -216.42773438 305.34008789 C-216.28051181 296.85131095 -214.9458602 290.00905741 -212 282 C-221.24 282 -230.48 282 -240 282 C-240 265.83 -240 249.66 -240 233 C-233.85503906 233.00954712 -233.85503906 233.00954712 -227.5859375 233.01928711 C-214.00720852 233.03527347 -200.42876286 233.01308078 -186.85009766 232.97153378 C-178.62228106 232.94728073 -170.39483103 232.93580762 -162.16699219 232.95532227 C-154.98845598 232.97231478 -147.810433 232.96440984 -140.63196373 232.92765242 C-136.83725796 232.90906339 -133.04341836 232.9022317 -129.24871826 232.92530632 C-106.68986091 233.17232546 -106.68986091 233.17232546 -86 225 C-84.02388639 223.97326907 -82.04524144 222.95137266 -80.0625 221.9375 C-78.36950054 220.96787304 -76.68177459 219.98896807 -75 219 C-73.67742187 218.27683594 -73.67742187 218.27683594 -72.328125 217.5390625 C-69.98977049 216.16655007 -67.96768772 214.86412521 -66 213 C-64.27161128 206.2193981 -68.11822726 198.50744622 -71.3203125 192.5390625 C-77.95692463 181.91322996 -87.00309286 176.03437696 -99 173 C-103.65347842 172.62792184 -108.30197212 172.62836279 -112.96801758 172.62939453 C-115.16502822 172.62504449 -117.35998729 172.5887268 -119.55664062 172.55078125 C-132.25937005 172.44886515 -142.9257837 174.94818734 -153 183 C-153.67675781 183.52851563 -154.35351562 184.05703125 -155.05078125 184.6015625 C-167.00682099 195.14144996 -171.73693915 213.49696738 -177 228 C-181.95856375 227.23332202 -186.51390665 225.48217614 -191.203125 223.76171875 C-192.52071808 223.2786602 -192.52071808 223.2786602 -193.8649292 222.7858429 C-195.71484255 222.1047403 -197.5638869 221.42127336 -199.41210938 220.7355957 C-201.30860589 220.03517764 -203.20773301 219.34184277 -205.109375 218.65551758 C-207.85487088 217.66458886 -210.59200621 216.65320884 -213.328125 215.63671875 C-214.18222961 215.33239426 -215.03633423 215.02806976 -215.9163208 214.71452332 C-216.70093689 214.41774185 -217.48555298 214.12096039 -218.29394531 213.81518555 C-218.98723938 213.56061081 -219.68053345 213.30603607 -220.39483643 213.04374695 C-222 212 -222 212 -222.77496338 210.05021667 C-223.09645128 207.12127181 -222.21755215 205.15155535 -221.15625 202.4140625 C-220.73786865 201.32496582 -220.3194873 200.23586914 -219.88842773 199.11376953 C-219.43024658 197.96247559 -218.97206543 196.81118164 -218.5 195.625 C-218.03730713 194.44921387 -217.57461426 193.27342773 -217.09790039 192.06201172 C-211.80077382 178.7644862 -206.03245733 167.2216216 -197 156 C-196.21625 154.948125 -195.4325 153.89625 -194.625 152.8125 C-179.43262029 136.53495031 -156.49759196 124.14610093 -133.96336365 122.88612366 C-131.58330934 122.81875672 -129.20513902 122.78279698 -126.82421875 122.76171875 C-125.940793 122.753647 -125.05736725 122.74557526 -124.14717102 122.73725891 C-122.27708873 122.72346512 -120.40698176 122.71272205 -118.53686523 122.70483398 C-116.65690535 122.69339733 -114.77697575 122.67308011 -112.8972168 122.64331055 C-85.07533766 122.20379803 -61.66733001 129.91560225 -41.25 149.1875 C-32.98795407 157.85049816 -26.71302026 167.54585585 -22.0625 178.5625 C-21.79211914 179.19752441 -21.52173828 179.83254883 -21.24316406 180.48681641 C-16.40847597 192.75123746 -15.57775186 204.89150846 -15.8125 217.875 C-15.82759999 219.35285068 -15.84127884 220.83071659 -15.85351562 222.30859375 C-15.88345268 225.87309868 -15.94223058 229.43541264 -16 233 C-10.72 233 -5.44 233 0 233 C0 156.11 0 79.22 0 0 Z M93.5546875 179.20703125 C79.61540079 181.0561203 67.8309586 188.76073201 58.97265625 199.4453125 C50.92038324 210.30651796 49.75097753 218.99217975 48 233 C82.32 233 116.64 233 152 233 C149.53340298 213.26722381 145.49790626 201.83496188 130.80078125 189.078125 C119.78362269 180.90360847 107.00877657 178.06794703 93.5546875 179.20703125 Z M-112.19335938 284.36401367 C-120.99880932 286.37766991 -129.889642 287.11800534 -138.88012695 287.87231445 C-150.9079192 288.75348408 -150.9079192 288.75348408 -161.47265625 293.97265625 C-161.99730469 294.66230469 -162.52195312 295.35195313 -163.0625 296.0625 C-163.61035156 296.75472656 -164.15820312 297.44695312 -164.72265625 298.16015625 C-168.23101539 303.21348089 -167.60556491 309.06267964 -167 315 C-164.28284841 322.56659703 -157.70858341 327.89331936 -150.625 331.25 C-134.4289626 337.81007565 -113.74331677 337.92620901 -97.4921875 331.2578125 C-82.75051425 323.81765766 -73.1194414 310.13756557 -67 295 C-65.58133941 290.64617958 -64.90502095 286.58273907 -65 282 C-88.75157375 281.20562804 -88.75157375 281.20562804 -112.19335938 284.36401367 Z M48 282 C50.35917546 300.87340364 54.18631927 313.26787584 68.73046875 325.40234375 C81.61106554 334.46975181 94.69473427 336.23287163 110 335 C122.79892283 332.67165565 134.12948462 324.86474566 141.83984375 314.53515625 C149.09909001 303.8381274 150.91942924 294.96684918 152 282 C117.68 282 83.36 282 48 282 Z " fill="#000000" transform="translate(264,64)"/>
</svg>
